<svg width="26" height="23" viewBox="0 0 26 23" fill="none" xmlns="http://www.w3.org/2000/svg">
<path d="M15.5357 19.9866V19.0491V11.2143V8H10.1786V11.2143V19.0491V19.9866C10.1786 20.2656 10.279 20.4833 10.4799 20.6395C10.6808 20.7846 10.9375 20.8571 11.25 20.8571H14.4643C14.7768 20.8571 15.0335 20.7846 15.2344 20.6395C15.4353 20.4833 15.5357 20.2656 15.5357 19.9866ZM7.90179 5.85714H11.1663L9.05692 3.16183C8.76674 2.81585 8.3817 2.64286 7.90179 2.64286C7.45536 2.64286 7.07589 2.79911 6.76339 3.11161C6.45089 3.42411 6.29464 3.80357 6.29464 4.25C6.29464 4.69643 6.45089 5.07589 6.76339 5.38839C7.07589 5.70089 7.45536 5.85714 7.90179 5.85714ZM18.9509 5.38839C19.2634 5.07589 19.4196 4.69643 19.4196 4.25C19.4196 3.80357 19.2634 3.42411 18.9509 3.11161C18.6384 2.79911 18.2589 2.64286 17.8125 2.64286C17.3326 2.64286 16.9475 2.81585 16.6574 3.16183L14.5647 5.85714H17.8125C18.2589 5.85714 18.6384 5.70089 18.9509 5.38839ZM25.7143 8.53571V13.8929C25.7143 14.0491 25.6641 14.1775 25.5636 14.2779C25.4632 14.3783 25.3348 14.4286 25.1786 14.4286H23.5714V21.3929C23.5714 21.8393 23.4152 22.2188 23.1027 22.5312C22.7902 22.8438 22.4107 23 21.9643 23H3.75C3.30357 23 2.92411 22.8438 2.61161 22.5312C2.29911 22.2188 2.14286 21.8393 2.14286 21.3929V14.4286H0.535714C0.379464 14.4286 0.251116 14.3783 0.15067 14.2779C0.0502232 14.1775 0 14.0491 0 13.8929V8.53571C0 8.37946 0.0502232 8.25112 0.15067 8.15067C0.251116 8.05022 0.379464 8 0.535714 8H7.90179C6.86384 8 5.97656 7.63728 5.23996 6.91183C4.51451 6.17522 4.15179 5.28795 4.15179 4.25C4.15179 3.21205 4.51451 2.33036 5.23996 1.60491C5.97656 0.868302 6.86384 0.499998 7.90179 0.499998C9.09598 0.499998 10.0335 0.929686 10.7143 1.78906L12.8571 4.55134L15 1.78906C15.6808 0.929686 16.6183 0.499998 17.8125 0.499998C18.8504 0.499998 19.7321 0.868302 20.4576 1.60491C21.1942 2.33036 21.5625 3.21205 21.5625 4.25C21.5625 5.28795 21.1942 6.17522 20.4576 6.91183C19.7321 7.63728 18.8504 8 17.8125 8H25.1786C25.3348 8 25.4632 8.05022 25.5636 8.15067C25.6641 8.25112 25.7143 8.37946 25.7143 8.53571Z" fill="#EC80A0"/>
</svg>
