<svg width="29" height="25" viewBox="0 0 29 25" fill="none" xmlns="http://www.w3.org/2000/svg">
<path d="M9.07813 21.3638C9.50223 20.9397 9.71429 20.4375 9.71429 19.8571C9.71429 19.2768 9.50223 18.7746 9.07813 18.3504C8.65402 17.9263 8.15179 17.7143 7.57143 17.7143C6.99107 17.7143 6.48884 17.9263 6.06473 18.3504C5.64063 18.7746 5.42857 19.2768 5.42857 19.8571C5.42857 20.4375 5.64063 20.9397 6.06473 21.3638C6.48884 21.7879 6.99107 22 7.57143 22C8.15179 22 8.65402 21.7879 9.07813 21.3638ZM3.28571 11.2857H9.71429V7H7.0692C6.92411 7 6.80134 7.05022 6.70089 7.15067L3.43638 10.4152C3.33594 10.5156 3.28571 10.6384 3.28571 10.7835V11.2857ZM24.0781 21.3638C24.5022 20.9397 24.7143 20.4375 24.7143 19.8571C24.7143 19.2768 24.5022 18.7746 24.0781 18.3504C23.654 17.9263 23.1518 17.7143 22.5714 17.7143C21.9911 17.7143 21.4888 17.9263 21.0647 18.3504C20.6406 18.7746 20.4286 19.2768 20.4286 19.8571C20.4286 20.4375 20.6406 20.9397 21.0647 21.3638C21.4888 21.7879 21.9911 22 22.5714 22C23.1518 22 23.654 21.7879 24.0781 21.3638ZM29 1.64286V18.7857C29 18.9531 28.9777 19.1038 28.933 19.2377C28.8884 19.3605 28.8103 19.4609 28.6987 19.5391C28.5982 19.6172 28.5089 19.6842 28.4308 19.74C28.3527 19.7846 28.2188 19.8181 28.029 19.8404C27.8504 19.8516 27.7277 19.8627 27.6607 19.8739C27.5938 19.8739 27.4487 19.8739 27.2254 19.8739C27.0134 19.8627 26.8906 19.8571 26.8571 19.8571C26.8571 21.0402 26.4386 22.0502 25.6016 22.8873C24.7645 23.7243 23.7545 24.1429 22.5714 24.1429C21.3884 24.1429 20.3783 23.7243 19.5413 22.8873C18.7042 22.0502 18.2857 21.0402 18.2857 19.8571H11.8571C11.8571 21.0402 11.4386 22.0502 10.6016 22.8873C9.76451 23.7243 8.75446 24.1429 7.57143 24.1429C6.38839 24.1429 5.37835 23.7243 4.54129 22.8873C3.70424 22.0502 3.28571 21.0402 3.28571 19.8571H2.21429C2.1808 19.8571 2.05246 19.8627 1.82924 19.8739C1.61719 19.8739 1.47768 19.8739 1.41071 19.8739C1.34375 19.8627 1.2154 19.8516 1.02567 19.8404C0.847098 19.8181 0.71875 19.7846 0.640625 19.74C0.5625 19.6842 0.467634 19.6172 0.356027 19.5391C0.25558 19.4609 0.183036 19.3605 0.138393 19.2377C0.09375 19.1038 0.0714286 18.9531 0.0714286 18.7857C0.0714286 18.4955 0.177455 18.2444 0.389509 18.0324C0.601563 17.8203 0.852679 17.7143 1.14286 17.7143V12.3571C1.14286 12.2679 1.13728 12.0725 1.12612 11.7712C1.12612 11.4699 1.12612 11.2578 1.12612 11.135C1.13728 11.0123 1.15402 10.8225 1.17634 10.5658C1.19866 10.298 1.23214 10.0915 1.27679 9.94643C1.33259 9.79018 1.41071 9.61719 1.51116 9.42745C1.62277 9.23772 1.75112 9.07031 1.89621 8.92522L5.21094 5.61049C5.42299 5.39844 5.70201 5.21986 6.04799 5.07478C6.40513 4.92969 6.73438 4.85714 7.03571 4.85714H9.71429V1.64286C9.71429 1.35268 9.82031 1.10156 10.0324 0.889508C10.2444 0.677455 10.4955 0.571428 10.7857 0.571428H27.9286C28.2188 0.571428 28.4699 0.677455 28.6819 0.889508C28.894 1.10156 29 1.35268 29 1.64286Z" fill="#EC80A0"/>
</svg>
