<svg width="15" height="21" viewBox="0 0 15 21" fill="none" xmlns="http://www.w3.org/2000/svg">
<path d="M5.1875 9.58594C5.83854 10.2109 6.60677 10.5234 7.49219 10.5234C8.40365 10.5234 9.17188 10.2109 9.79688 9.58594C10.4479 8.9349 10.7734 8.16667 10.7734 7.28125C10.7734 6.36979 10.4479 5.60156 9.79688 4.97656C9.17188 4.32552 8.40365 4 7.49219 4C6.60677 4 5.83854 4.32552 5.1875 4.97656C4.5625 5.60156 4.25 6.36979 4.25 7.28125C4.25 8.16667 4.5625 8.9349 5.1875 9.58594ZM6.08594 5.83594C6.47656 5.44531 6.94531 5.25 7.49219 5.25C8.0651 5.25 8.54688 5.44531 8.9375 5.83594C9.32812 6.22656 9.52344 6.70833 9.52344 7.28125C9.52344 7.82812 9.32812 8.29688 8.9375 8.6875C8.54688 9.07812 8.0651 9.27344 7.49219 9.27344C6.94531 9.27344 6.47656 9.07812 6.08594 8.6875C5.69531 8.29688 5.5 7.82812 5.5 7.28125C5.5 6.70833 5.69531 6.22656 6.08594 5.83594ZM7.0625 19.8984C7.14062 20.0026 7.24479 20.0938 7.375 20.1719C7.45312 20.1979 7.51823 20.2109 7.57031 20.2109C7.6224 20.2109 7.6875 20.1979 7.76562 20.1719C7.86979 20.0938 7.97396 20.0026 8.07812 19.8984C8.23438 19.7422 8.44271 19.5078 8.70312 19.1953C8.96354 18.8828 9.43229 18.2708 10.1094 17.3594C10.8125 16.4219 11.4375 15.5104 11.9844 14.625C12.5312 13.7135 13.0521 12.6589 13.5469 11.4609C14.0417 10.263 14.3411 9.14323 14.4453 8.10156C14.4974 7.78906 14.5234 7.5026 14.5234 7.24219C14.5234 5.3151 13.8333 3.67448 12.4531 2.32031C11.099 0.940104 9.44531 0.25 7.49219 0.25C5.5651 0.25 3.91146 0.940104 2.53125 2.32031C1.17708 3.67448 0.5 5.3151 0.5 7.24219C0.5 7.52865 0.526042 7.82812 0.578125 8.14062C0.682292 9.15625 0.96875 10.263 1.4375 11.4609C1.93229 12.6328 2.47917 13.7005 3.07812 14.6641C3.70312 15.6276 4.3151 16.513 4.91406 17.3203C5.53906 18.1276 6.04688 18.7526 6.4375 19.1953C6.82812 19.6641 7.03646 19.8984 7.0625 19.8984ZM3.42969 3.17969C4.54948 2.0599 5.90365 1.5 7.49219 1.5C9.08073 1.5 10.4349 2.0599 11.5547 3.17969C12.7005 4.29948 13.2734 5.65365 13.2734 7.24219C13.2734 7.45052 13.2474 7.69792 13.1953 7.98438C13.0911 8.94792 12.8047 10.0026 12.3359 11.1484C11.8932 12.2682 11.3333 13.3359 10.6562 14.3516C9.97917 15.3672 9.40625 16.2005 8.9375 16.8516C8.46875 17.4766 8.01302 18.0625 7.57031 18.6094C7.10156 18.0625 6.61979 17.4766 6.125 16.8516C5.65625 16.2005 5.08333 15.3672 4.40625 14.3516C3.72917 13.3359 3.14323 12.2682 2.64844 11.1484C2.17969 10.0026 1.89323 8.94792 1.78906 7.98438C1.76302 7.69792 1.75 7.45052 1.75 7.24219C1.75 5.65365 2.3099 4.29948 3.42969 3.17969Z" fill="black"/>
</svg>
