<svg width="20" height="18" viewBox="0 0 20 18" fill="none" xmlns="http://www.w3.org/2000/svg">
<path d="M18.75 11.75V9.25C18.75 6.54167 17.8776 4.40625 16.1328 2.84375C14.388 1.28125 12.3438 0.5 10 0.5C7.70833 0.5 5.67708 1.29427 3.90625 2.88281C2.13542 4.44531 1.25 6.56771 1.25 9.25V11.75C0.911458 11.75 0.611979 11.8802 0.351562 12.1406C0.117188 12.375 0 12.6615 0 13V15.5C0 15.8385 0.117188 16.138 0.351562 16.3984C0.611979 16.6328 0.911458 16.75 1.25 16.75C1.25 17.0885 1.36719 17.388 1.60156 17.6484C1.86198 17.8828 2.16146 18 2.5 18C2.83854 18 3.125 17.8828 3.35938 17.6484C3.61979 17.388 3.75 17.0885 3.75 16.75V11.75C3.75 11.4115 3.61979 11.125 3.35938 10.8906C3.125 10.6302 2.83854 10.5 2.5 10.5V9.25C2.5 6.93229 3.24219 5.10938 4.72656 3.78125C6.23698 2.42708 7.99479 1.75 10 1.75C12.0052 1.75 13.75 2.40104 15.2344 3.70312C16.7448 5.00521 17.5 6.85417 17.5 9.25V10.5C17.1615 10.5 16.862 10.6302 16.6016 10.8906C16.3672 11.125 16.25 11.4115 16.25 11.75V16.75C16.25 17.0885 16.3672 17.388 16.6016 17.6484C16.862 17.8828 17.1615 18 17.5 18C17.8385 18 18.125 17.8828 18.3594 17.6484C18.6198 17.388 18.75 17.0885 18.75 16.75C19.0885 16.75 19.375 16.6328 19.6094 16.3984C19.8698 16.138 20 15.8385 20 15.5V13C20 12.6615 19.8698 12.375 19.6094 12.1406C19.375 11.8802 19.0885 11.75 18.75 11.75Z" fill="black"/>
</svg>
